<mxfile host="app.diagrams.net" agent="Mozilla/5.0 (X11; Linux x86_64) AppleWebKit/537.36 (KHTML, like Gecko) Chrome/120.0.0.0 Safari/537.36" version="26.2.9">
  <diagram name="Page-1" id="yQxB-9vZZbS4Zfdi3j4K">
    <mxGraphModel dx="863" dy="515" grid="1" gridSize="10" guides="1" tooltips="1" connect="1" arrows="1" fold="1" page="1" pageScale="1" pageWidth="850" pageHeight="1100" math="0" shadow="0">
      <root>
        <mxCell id="0" />
        <mxCell id="1" parent="0" />
        <mxCell id="5LPPCdeX93j3gtg9hepy-1" value="Data Acquisition &amp;amp; Transformation" style="rounded=1;whiteSpace=wrap;html=1;fillColor=#f0a30a;fontColor=#000000;strokeColor=#BD7000;fontSize=16;fontStyle=1;strokeWidth=4;" vertex="1" parent="1">
          <mxGeometry x="40" y="40" width="160" height="80" as="geometry" />
        </mxCell>
        <mxCell id="5LPPCdeX93j3gtg9hepy-2" value="Data Mapping" style="rounded=1;whiteSpace=wrap;html=1;fillColor=#f0a30a;fontColor=#000000;strokeColor=#BD7000;fontSize=16;fontStyle=1;strokeWidth=4;" vertex="1" parent="1">
          <mxGeometry x="280" y="40" width="160" height="80" as="geometry" />
        </mxCell>
        <mxCell id="5LPPCdeX93j3gtg9hepy-3" value="Visual Encoding &amp;amp; Layout" style="rounded=1;whiteSpace=wrap;html=1;fillColor=#f0a30a;fontColor=#000000;strokeColor=#BD7000;fontSize=16;fontStyle=1;strokeWidth=4;" vertex="1" parent="1">
          <mxGeometry x="520" y="40" width="160" height="80" as="geometry" />
        </mxCell>
        <mxCell id="5LPPCdeX93j3gtg9hepy-4" value="View Rendering" style="rounded=1;whiteSpace=wrap;html=1;fillColor=#f0a30a;fontColor=#000000;strokeColor=#BD7000;fontSize=16;fontStyle=1;strokeWidth=4;" vertex="1" parent="1">
          <mxGeometry x="520" y="200" width="160" height="80" as="geometry" />
        </mxCell>
        <mxCell id="5LPPCdeX93j3gtg9hepy-5" value="Interaction&lt;div&gt;Mechanisms&lt;/div&gt;" style="rounded=1;whiteSpace=wrap;html=1;fillColor=#f0a30a;fontColor=#000000;strokeColor=#BD7000;fontSize=16;fontStyle=1;strokeWidth=4;" vertex="1" parent="1">
          <mxGeometry x="280" y="200" width="160" height="80" as="geometry" />
        </mxCell>
        <mxCell id="5LPPCdeX93j3gtg9hepy-7" value="" style="shape=image;verticalLabelPosition=bottom;labelBackgroundColor=default;verticalAlign=top;aspect=fixed;imageAspect=0;image=data:image/png,iVBORw0KGgoAAAANSUhEUgAAAgAAAAIACAYAAAD0eNT6AAAAAXNSR0IArs4c6QAAIABJREFUeAHtnQm8FdW1pzdc5hkERBCVQSYRlMEBRC7KjKAMIiiCIgIig0wyXhVxno0KJjhkenFIYowak6gxaoyJEdGoKIhxDEkc3uvXr/u1ne7Xb3fWTcp3PNapW7Vr2lX1+fsdz+XeGvZee9X6f2vVrl1K8R8WUKqHUmqBUurrSqlfKqU+VEr9i1LqP5VSmg82wAcy6QNyDf9RKbVbKfWwUur6v13b85VSvQh6WAALFNsCXZVSm5VSewnumQzugBlwGsYH9iulvqWUmqiUalDsUEjvsUBxLCD0f69S6v8g/Ag/PoAPKKU+VkrdoJQ6uDhhkJ5igWJZoJlS6mql1F8J+gR9fAAfcPEBiQ13/a0y0K1YoZHeYoF8W6DfP+4DhikZsi8lZ3ygGD7wv/4WDi9TSjXJd1ikd1gg/xaYo5T63IX2CebFCOaMM+Ns6gP7lFLH5D9E0kMskE8LrGQmP6Ve4A8fCOEDMldotVKqXj5DJL3CAvm0wLIQF71pxsB+ZJv4QD594IG/zSFqnM9QSa+wQL4scLpS6v8BAGR++AA+EKEPPKWUapWvUElvsEC+LCCP+f1bhBc9GV0+MzrGlXE18YGXlFJt8xUy6Q0WyIcFZEGPlxF/sj58AB+I0Qd2AgH5EAx6kS8LyKQ/E6pnH+yGD+ADQXzgFaXUAfkKn/QGC2TXAnIx/ncAAADCB/CBhHyASkB29YKW58wCWxK66INkCWxLVokP5NsHqATkTEjoTvYsICt2/TMAQOaHD+ADKfgAlYDsaQYtzpEFzojioq9fv74eP268vvXmW/UzTz+jd7+2W+/bs6/i57133tOfffIZH2yAD1jmA3/e/2e9+/Xd+o7b70iqAgME5EhQ6Eq2LPBIWADo06ePfvThRyuKvRsIAADADwBotw88+uNHkwIAOQ8QkC3doLU5sEDDsM/9Dx82XL/2ymuBxF+AAACwO/gjzoxPwgAABORAUOhCtixwXJjsv1u3bnrXS7sCiz8AgLgAGPb7QAoAAARkSz9obcYtsDgMANx7971G4g8A2B/8EWjGKCUAEAjg6YCMCwvNz4YFbjYFgL59+xqLPwCAuAAY9vtAigBAJSAb+kErM26BH5gCwPKlywEAy2ZvI6r2i2qWxihlAAACMi4uNN9+C/zcFABu/9rtAAAAwCN8OfYBCwCA2wH2awgtzLAFnjcFgPu+ex8AkOPgn6VMlbbGU/mwBACoBGRYYGi63Rb4tSkAPHDfAwAAAEAFIMc+YBEAUAmwW0doXUYtAADkOICTGceTGRfFrmEAoHWr1rqqqkqEO8oPiwVlVGhotp0WAAAAALJ4fMDVB8IAwNChQ2uXBY8BAnhE0E4toVUZtAAAQPB3Df5FyXLpZ+UqSVgAkMd95d0gQEAGlYEmF8ICAAAAAADgA64+EAUAAAGF0BE6mVELAAAEf9fgT2ZcOTMuim2iAgAgIKPqQLNzbwEAAAAAAPABVx+IEgCAgNxrCR3MoAUAAIK/a/AvSpZLPytXOqIGACAggwpBk3NtAQAAAAAA8AFXH4gDAICAXOsJncuYBQAAgr9r8CczrpwZF8U2cQEAEJAxlaC5ubUAAAAAAAD4gKsPxAkAQEBuNYWOZcgCAADB3zX4FyXLpZ+VKx1xAwAQkCGloKm5tAAAAAAAAPiAqw8kAQBAQC51hU5lxAIAAMHfNfiTGVfOjItim6QAAAjIiFrQzNxZAAAAAAAAfMDVB5IEACAgd9pChzJgAQCA4O8a/IuS5dLPypWOpAEACMiAYtDEXFkAAAAAAAB8wNUH0gAAICBX+kJnLLcAAEDwdw3+ZMaVM+Oi2CYtAAACLFcNmpcbCwAAAAAAgA+4+kCaAAAE5EZj6IjFFgAACP6uwb8oWS79rFzpSBsAgACLlYOm5cICAAAAAADgA64+YAMAAAG50Bk6YakFAACCv2vwJzOunBkXxTa2AAAQYKl60KzMWwAAAAAAAHzA1QdsAgAgIPNaQwcstAAAQPB3Df5FyXLpZ+VKh20AAARYqCA0KdMWAAAAAAAAH3D1ARsBAAjItN7QeMssAAAQ/F2DP5lx5cy4KLaxFQCAAMtUhOZk1gIAAAAAAOADrj5gMwAAAZnVHBpukQUAAIK/a/AvSpZLPytXOmwHACDAIiWhKZm0AAAAAAAA+ICrD2QBAICATOoOjbbEAgAAwd81+JMZV86Mi2KbrAAAEGCJmtCMzFkAAAAAAAB8wNUHsgQAQEDmtIcGW2ABAIDg7xr8i5Ll0s/KlY6sAUCMELBLKXWABfGaJmCBSC0AAAAAAAA+4OoDWQQAICBSfeBgObcAAEDwdw3+ZMaVM+Oi2CarAAAE5Fy16F5kFgAAAAAAAB9w9YEsAwAQEJlGcKAcWwAAIPi7Bv+iZLn0s3KlI+sAAATkWLnoWiQWAAAAAAAAH3D1gTwAABAQiU5wkJxaAAAg+LsGfzLjyplxUWyTFwAAAnKqXnQrtAUAAAAAAMAHXH0gTwAABITWCg6QQwsAAAR/1+BflCyXflaudOQNAICAHCoYXQplAQAAAAAA8AFXH8gjAAABofSCnXNmAQCA4O8a/MmMK2fGRbFNXgFAIOCWm27RVVVVWikV5YcVA3MmkHnvDgAAAAAA+ICrD+QZAICAvEsb/fNjAQCA4O8a/IuS5dLPypWOvAMAEOBHItgmzxYAAAAAAAAfcPWBIgAAEJBneaNvdVkAACD4uwZ/MuPKmXFRbFMUAAAC6pIJ/p5XCwAAAAAAgA+4+kCRAAAIyKvE0S8vCwAABH/X4F+ULJd+Vq50FA0AgAAvqeBvebQAAAAAAAD4gKsPFBEAgIA8yhx9qmQBAIDg7xr8yYwrZ8ZFsU1RAQAIqCQX/D5vFgAAAAAAAB9w9YEiAwAQkDepoz9uFgAACP6uwb8oWS79rFzpKDoAAAFuksHv8mQBAAAAAADwAVcfAAD2aSAgT3JHX8otAAAQ/F2DP5lx5cy4KLYBAP4OAEBAuWzw77xYAAAAAAAAfMDVBwCA/wIAICAvkkc/Si0AABD8XYN/UbJc+lm50gEAfBkAgIBS6eDnPFgAAAAAAAB8wNUHAICvAgAQkAfZow+OBQAAgr9r8CczrpwZF8U2AIA7AAABjnzwnXULAAAAAACAD7j6AABQGQCAgKxLH+0XCwAABH/X4F+ULJd+Vq50AADeAAAEIKJZtwAAAAAAAPiAqw8AAHUDABCQdQksdvsBAIK/a/AnM66cGRfFNgCAPwAAAootolnuPQAAAAAA+ICrDwAA/gEACMiyDBa37QAAwd81+Bcly6WflSsdAEAwAAACiiukWe05AAAAAAD4gKsPAADBAQAIyKoUFrPdAADB3zX4kxlXzoyLYhsAwAwAgIBiimkWew0AAAAAAD7g6gMAgDkAAAFZlMPitRkAIPi7Bv+iZLn0s3KlAwAIBwBAQPEENWs9BgAAAAAAH3D1AQAgPAAAAVmTxGK1FwAg+LsGfzLjyplxUWwDAEQDAEBAsUQ1S70FAAAAAAAfcPUBACA6AAACsiSLxWkrAEDwdw3+Rcly6WflSsdjjzymlVJGnyGDh2gRPT5ftsEN192gq6qqjGzqMRY7lVJtiyNb9DQqCwAAAAAAgA+4+sBTTzxlLFQ9evRA/CsA0C033RIHBOxSSh0QlTBwnGJYAAAg+LsGfzLjyplxUWzz2xd+awwATZs21W++/iYQUAECqAQUQ2Bt7yUAAAAAAPiAqw+8+867xgAg5ep7774XAKgAAHJrBAiwXR7z3z4AgODvGvyLkuXST+9KR8eOHY0hYFT1KADAAwBihIDfKaVa5l++6GFYCwAAAAAAgA9U9IGRJ440BgCpAuz4+g4gIB0IeFIp1SisQLB/vi0AABD8KwZ/smPv7LgI9tmwfkMoAGjVqpV+/LHHgYB0IOA+pVS9fEsYvQtjAQAAAAAA8IGKPvD4Tx4PBQBSBRAI+Pr2rwMB6UDARWEEgn3zbQEAgOBfMfgXIcOlj95Vjk/+8ok+pOshoSFAQGDECSNqQeD1V18HBirAQAwTA/+qlBqSbxmjd6YWAAAAAAAAH/D0gdWrVkcCAAIB8mnUqJHu0qWL7n9Efz4uNmjevHmk9lZK7VFKNTYVCfbLrwUAAIK/Z/AnQ/bOkItgnzffeFM3adIkalHieIarLDogFfB7Y35ljJ6ZWgAAAAAAAHygTh+Yf+58BDtZwY7a3v+ulDrEVCjYL58WAAAI/nUG/yJkufTRu9Lx1u63dJs2baIWJY6XLFRsz6eM0StTCwAAAAAAgA/48oHrrr0OwU5WsKO29+dKqYNMxYL98mcBAIDg7yv4kyF7Z8hFsM+nH3+qR48eHbUocbxkoeLq/MkYPTK1AAAAAAAA+IBvH9i7Z6/uenBXRDtZ0Y7S3vuVUlWmgsF++bIAAEDw9x38i5Dl0se6Kx0vvfiSbt++fZSixLGSBYqT8yVj9MbUAgAAAAAA4AOBfeCpJ57SB7Q7AOFOVrijsvcOU8Fgv3xZAAAg+AcO/mTJdWfJRbDRb379m8hWCQz4THtUQljU47ybLxmjN6YWAAAAAAAAHzD2gXffeVdPPmVyUYU0y/0+1FQ02C8/FgAACP7Gwb8IWS59rLvaIU8H3HTDTbpt27ZZFsSitf3M/MgYPTG1AAAAAAAA+EAkPrD3rb160cJFumnTpkUT0yz2d6upaLBffiwAABD8Iwn+ZMp1Z8pFsdGeN/fo9evW6+7du2dRGIvS5vvzI2P0xNQCAAAAAADgA7H5wNNPPa23XLZFjxkzpnbCYP369YsisLb38yVT0WC//FgAACD4xxb8i5Lx0k//1Y/9H+3Xr+x6Rf/quV/pXzz5Cz4hbLB92/YwkLEvPzJGT0wtAAAAAAAAPoAPZNAHdr28KwwA/MVUNNgvPxYAADJ44ZNx+s84sRW2yqsPvP/u+2EA4H/mR8boiakFAAAAgOwPH8AHMugDcjslxAJK8mZA/iu4BQCADF74ec1o6BfZOj7g3wcAgIKrdwTdBwAAALI/fAAfyKAPAAARKGDBDwEAZPDCJ0vynyVhK2yVVx8AAAqu3hF0HwAAAMj+8AF8IIM+AABEoIAFPwQAkMELP68ZDf0iW8cH/PsAAFBw9Y6g+wAAAED2hw/gAxn0AQAgAgUs+CEAgAxe+GRJ/rMkbIWt8uoDAEDB1TuC7gMAAADZHz6AD2TQBwCACBSw4IcAADJ44ec1o6FfZOv4gH8fAAAKrt4RdB8AAADI/vABfCCDPgAARKCABT8EAJDBC58syX+WhK2wVV59AAAouHpH0H0AAAAg+8MH8IEM+gAAEIECFvwQAEAGL/y8ZjT0i2wdH/DvAwBAwdU7gu4DAAAA2R8+gA9k0AcAgAgUsOCHAAAyeOGTJfnPkrAVtsqrDwAABVfvCLoPAAAAZH/4AD6QQR8AACJQwIIfAgDI4IWf14yGfpGt4wP+fQAAKLh6R9B9AAAAIPvDB/CBDPoAABCBAhb8EABABi98siT/WRK2wlZ59QEAoODqHUH3AQAAgOwPH8AHMugDAEAECljwQwAAGbzw85rR0C+ydXzAvw8AAAVX7wi6DwD4AIC9e/bq+793v758y+X6vPnn6enTp+sJ4yfokSeO5IMN8IGUfGDs2LH6tFNP0+fMO0dv3rRZf/Peb+pXdr1SmGoGABCBAhb8EABABQD47Qu/1SsvWqmP6HeErlevnlZK8cEG+EAGfODQQw/V88+dr3/205/lGgYAgIKrdwTdBwDKAOCB+x/Qw4YNI9BnINADZUBpXT7Qu3dvve2Obfovf/pL7mAAAIhAAQt+CADgHwDwzC+f0ccecyzCj/DjAzn0ge7du+sHH3gwVxAAABRcvSPofuEBQDKDi1ZcpBs0aEDgz2HgrytD5O/FqiJMmzZNv/eH93IBAgBABApY8EMUGgB2v76brB/RB/wK5gPdunXTUvHL+hMHAEDB1TuC7hcWAF7e+bKWQEAGWKwMkPFmvMUHmjdvrr//4PczDQEAQAQKWPBDFBIAXnrxJd2xY0fEv2CZH+KP+Jf6QKNGjfRDP3wosxAAABRcvSPofuEA4M033tTymFBpIOBnhAEfKKYPtGjRQv/iyV9kEgIAgAgUsOCHKBQAfPKXT/SIESMQfzJ/fAAf+MIHunTpot/e+3bmIAAAKLh6R9D9QgHAmtVrvrjoyfiKmfEx7oy7mw+MHz8eAIhAUDhEtixQGAB4/lfP64YNGwIAZH74AD7g6gP33H1PpiCACkC2xNbG1hYGAIYPH+560btlA/yOLBEfKJ4PdO7cWX/0wUeZgQAAwEZJzVabCgEADz/0MOJP1ocP4AN1+sCVV1wJAGRLw2htCAsUAgBGVY+q88In4ytexseYM+blPnDQQQfpP+//cyYggApACOVj11oL5B4Adr28K7K3+TVp3kgPnthPz6wZpxfdPkOv+NZZmf4cM6W/MRgdP21gpvue9bGT9p+6yhxsDxvQOfPjt+TOmfrMyyfoE844Wrfq0MLYl8sh4Lvf/i4AgEAWwgK5B4AN6zeEDgxVDerr8YuH65t3rdV37tucm8/EJScY22bKyurc2CGrY7p0xyzj8etf3TNX43fHWxv1rEvG6WatmhjbxAGBKZOnAACFkD86mXsAGDJ4SKiAIAFl5bfn5CpYOoIHAGQb5gCAr47flieW6A6Htgt1zbds2TITrw/mFgACHtYCuQaA9999P9Sjf/Wr6umld83KpfgLBAAAXxUQB46y8A0AuI/flc8s1S3bNQsFAT/76c+srwIAAGHlj/1zDQCPPPxIqCAw5rzjciv+AIC7eGRB+J02AgCVx/Dc608Nde1n4WkAAAABD2uBXAPAjdffaBwEGjZpoG/cuRoAqPDoGHMAKouPI9BxfwMAlcdg+95NulP3A4yv/3PPOZcKQFh1YX/rLZBrAFi2dJlxABhw0uG5Fn8RJ24BVBaQuMU7iuMDAN7jN+lC8/d+yKPDn33ymdUfKgDW66v1Dcw1AMybN88YAE5bPQoAqJD9y2xpKgDe4hOFwNd1DADAewyW3T3b+PofNGiQ1eIvcAIAWK+v1jcw1wAwY8YM4wAw79opAAAAYLUPAADeAFDz6ELj679Xr14AgPXyRQPDWiDXADD1tKnGAWDBLdOsDv51ZYd+/s4tAG8B8WPDNLcBALzH7/Inlxhf/927dwcAwqoL+1tvAQCgQpYLAHgvE8stAG/xSQIMAADvMQAAPK/hz61XJxoYuwUAAADAKEsCALzFBwBI3z4AAAAQu4Jm/AQAAAAAAGR0eWcqAN6QAQAAABnX59ibDwAAAAAAAJDL+S4AAAAQu4Jm/AQAAAAAAAAAAEBZHGASYMaVjeb7sgAAUHbhO28EYxKgZ/bAOgAWQAO3ALgF4MQrg28mAfqSyHxvBAAAAFQALBBzk0mDAAAAYCD8zvUOAORb2331DgAAAJyAEOibpwC8xcdE0IPuAwB4jwFzADyreACAL4nM90YAAAAQSPidjAMA8BafoGJusj0A4D0GAAAAkG/5Dt87AAAAAAC4BcAkwLI4wCTA8OLCEey3AABQduE7GS6TAD2zByYBWgANVACoADjxyuCbWwD263PsLQQAAAAqABaIObcAvMXcxD7cAvCEeAAgdnm1/wQAAAAAAAAA3AIoiwPcArBfvGhheAsAAGUXvlNK4xaAZ/bALQALoIFbAN5VAyoAntcwFYDw+pn5IwAAAAAVAAvE3KTEDQAAAE7CYvANAGRevsN3AAAAAAAAAIBbAGVxgFsA4cWFI9hvAQCg7MJ3SJpbAJ7lQ24BWAANVACoADjxyuCbCoD9+hx7CwEAAIAKgAVizi0AbzE3sQ9zADwhHgCIXV7tPwEAAAAAAAAAtwDK4gC3AOwXL1oY3gIAQNmF75TSuAXgmT1wC8ACaOAWgHfVgAqA5zVMBSC8fmb+CAAAAEAFwAIxNylxAwAAgJOwGHwDAJmX7/AdAAAAAAAAAOAWQFkc4BZAeHHhCPZbAAAou/AdkuYWgGf5kFsAFkADFQAqAE68MvimAmC/PsfeQgCgAgD0GdZNj5g1KNefrv06GWX/EmwOG9A517bJwtj3H9nDePzaHtQq9+M3ZFI/Y/tQAYhdeziBBRYAACoAgAFRGwcbzuVdbcA+2CdpHwAALFAnmhC7BQAAAABwwQfwgTIfAABi1x5OYIEFAICyCz/pTIPzkd3iA/b5AABggTrRhNgtAAAAAGR/+AA+UOYDAEDs2sMJLLAAAFB24ZON2ZeNMSaMSdI+AABYoE40IXYLAAAAANkfPoAPlPkAABC79nACCywAAJRd+ElnGpyP7BYfsM8HAAAL1IkmxG4BAAAAIPvDB/CBMh8AAGLXHk5ggQUAgLILn2zMvmyMMWFMkvYBAMACdaIJsVsAAAAAyP7wAXygzAcAgNi1hxNYYAEAoOzCTzrT4Hxkt/iAfT4AAFigTjQhdgsAAAAA2R8+gA+U+QAAELv2cAILLAAAlF34ZGP2ZWOMCWOStA8AABaoE02I3QIAAABA9ocP4ANlPgAAxK49nMACCwAAZRe+k2kMnDpIj9s4KdefHsN7Ggf+gaN76bO2TuSTog1GzR1qPH6de3XI/dhNWVltbB8AwAJ1ogmxWwAAqAAAU66aptftrMn1Z9h5I4wDpATXO/dt5pOiDZbumGU8fv2re+Z+7C5/comxfQCA2LWHE1hgAQAAADAKkgBA+vADAHiPAQDgOXfkcwv0hyakbAEAAAAAAFLM4sNUUQAAAMC5ZWnwDQCkLL42nB4AAAAAAAAgl7cDqABQAbBBZG1uAwAAAAAAAAAAUBYHmANgs2zRtqgsAACUXfhOKY1JgJ7Zg2YOgHf5OUxp3+++3ALwHgMqAJ7XMLcAolLRDB8HAAAAqABQAaACUBYHqABkWNVoum8LAABlFz4VAM+s4QtYoALgnX36zeLDbEcFwHsMqAB4XstUAHzLZH43BAAAgC9E3YEfP98AgLf4hBF2v/sCAN5jAAAAAPmV7mh6BgAAAAAAtwC4BVAWB7gFEI3AcBS7LQAAlF34TvbLJEDP7IFJgBZAAxUAKgBOvDL45haA3dqcSOsAAACACoAFYu637F+6HQAAABgIv3O9AwCJSKzdJwEAAAAnIAT6Zg6At/iUCnVcPwMA3mPAHADPKh4AYLc2J9I6AAAACCT8TsYBAHiLT1yiX3pcAMB7DAAAACARFc3wSQAAAAAA4BYAkwDL4gCTADOsajTdtwUAgLIL/4sMl9cBe4IBFQDv7LM0U4/rZyoA3mNABYAKgG8lLOiGAAAA4Cn0DhCVfwMA3uITl+iXHhcA8B4DAAAAKKiu++42AAAAAADcAuAWQFkc4BaAbw1hwwxbAAAou/CdTJd1ADyzB9YBsAAaqABQAXDilcE3TwFkWLijajoAAABQAbBAzEtL+35/BgAAAAPhd653ACAqFc3wcQAAAMAJCIG+mQPgLT5+RTzMdgCA9xgwB8CzigcAZFi4o2o6AAAABBJ+J+MAALzFJ4yw+90XAPAeAwAAAIhKKPN6HAAAAAAAuAXAJMCyOMAkwLxKHv0qtQAAUHbhf5Hhsg6AJxhQAfDOPv1m8WG2owLgPQZUAKgAlIodP3/VAgAAAOAp9A4QlX8DAN7iE0bY/e4LAHiPAQAAAHxV8vhNqQUAAAAAAOAWALcAyuIAtwBKZYKf82oBAKDswncyXdYB8MweWAfAAmigAkAFwIlXBt88BZBXVQ/QLwAAAKACYIGY+y37l24HAAAABsLvXO8AQAChzOumAAAA4ASEQN/MAfAWn1KhjutnAMB7DJgD4FnFAwDyquoB+gUAAACBhN/JOAAAb/GJS/RLjwsAeI8BAAAABNDCQm4KAAAAAAC3AJgEWBYHmARYSD0sXKcBgLIL/4sMl3UAPMGACoB39lmaqcf1MxUA7zGgAkAFoHCKHrDDAEAFADh8ZG993Lxhuf50GXCwp8g7MOT23XPIIXrcwmF8UrTB4Al9jcevfde2uR+7EbMGGduHCkBAJWHzTFoAAKgAAG6ix+88MwrjYItdsattPgAAZFLPaHRACwAAAADCjQ/gA2U+AAAEVBI2z6QFAICyC9+2TIT2kB3jA8n7AACQST2j0QEtAAAAAGR/+AA+UOYDAEBAJWHzTFoAACi78Mm2ks+2sDk2t80HAIBM6hmNDmgBAAAAIPvDB/CBMh8AAAIqCZtn0gIAQNmFb1smQnvIjvGB5H0AAMikntHogBYAAAAAsj98AB8o8wEAIKCSsHkmLQAAlF34ZFvJZ1vYHJvb5gMAQCb1jEYHtAAAAACQ/eED+ECZDwAAAZWEzTNpAQCg7MK3LROhPWTH+EDyPgAAZFLPaHRACwAAAADZHz6AD5T5AAAQUEnYPJMWAADKLnyyreSzLWyOzW3zAQAgk3pGowNaAAAAAMj+8AF8oMwHAICASsLmmbQAAFB24TuZSL/x/fXIZSfn+nPo0MOMA3+347rn2jZZGPsjpxxlPH4HdjtAT117Uq4/YxYcZ2wfACCTekajA1oAAKgAAFOumqbX7azJ9WfYeSOMA+SIC6pzbZssjP2MW2cbj1//6p76zn2bc/25/MklxvYBAAIqCZtn0gIAAABgFCQBgPThEADwBhgAwHNuyeeZVCwaHakFAAAAAADIaKUHAAAAnFuWBt8AQKRSms2DAQAAAAAAAOTyVgAVACoA2ZTl5FoNAAAAAAAAAACUxQHmACQnQpwpPQsAAGUXvlNKYxKgZ/agmQPAHADbJxFSAfC8hrkFkJ7uWnNmAAAAoAJABYAKQFkcoAJgjUbRkBgtAACUXfhUADyzhi9ggQoAFQAqAJ/pzz5J77P/o/1fXI9O3ArwTQUgRmHNyqF/HsBhvuRsP3n0J3rfnn3Gn/feeS/2i2fOWXO+1OYgfT39a7Nz/5y7LHYTxCal245eMy739rF9LQCeAuApgNJrMuDPAEBWVDrGdn5stgYkAAAgAElEQVQjoNPUCkb9+vX1rpd2GYu/gEMSALB+3XpjgVvw/QtyL3Ayz8Fk/GWf6TedkXv7AADeAksFIL3sXyoPVABiVMaCHHqaiQAMGTwklPgnBQBP/vxJI4FrdVDrQojb8qdW6/pV9QPbqKpRlV753LpC2MhmCKAC4A0oTAL0vJ1HBaAgIu/VzYZKqbeDQsAdt92RCQAQSh4+fHhggStSedtkPflBM4ci/hZMHAQAAICgsbtkewDASxkL9LeTlVL/t8QxPAVz9Mmj9dtvvZ0ZAHj2mWd1s2bNPPtU2vfOR3bRa36zsTACt/TnK3XLji1926d15zZ6+S/WFMY+VAC8Rdbm2wBUAKgAFEjHQ3X1bKXUX0uF0O3nYcOG6VdffjW0+Cd1C8CZofvgAw/qli3rFrkD+xykRRBtDvpxtO3c7y30BQFya+S8BxcXzj5x2DyKY1IB8IYTAAAACKWKBdt5sFLqGTfhb9OmjV538Tq9Z/eeSMQ/aQAQEHjxNy/qcePG6Xr16n0l223UrJE+fv4JetXz6wsrbgI+A6Yc5TonoH6D+vqoaYO0zBmIQrg4RjSPEAIAAIBbvPb5O24BFEzg/Xa3h1Jq/tFHHf3NzRs362/e80395utvRib8Iv5pAIBTDXjt1df0tju26RUXX6RPWjW2djZ7kYW/XIylvC9PB8gjgtXLT9anXjNdr3h6LcJvwT3/8rECAAAAn2L/laRHKQUA+FXEIm637619Yx2xjuM7iccAHdF3+967/21EzUJRKxc5/l25WgAAAAAAQBHVOYE+AwCVAy+ihG1s8AEAAAAAABIQwyKeAgBA5GwQOdpQ2Q8BAAAAACiiOifQZwCgcuBFlLCNDT4AAAAAAEACYljEUwAAiJwNIkcbKvshAAAAAABFVOcE+gwAVA68iBK2scEHAAAAAABIQAyLeAoAAJGzQeRoQ2U/BAAAAACgiOqcQJ8BgMqBF1HCNjb4AAAAAAAACYhhEU8BACByNogcbajshwAAAAAAFFGdE+gzAFA58CJK2MYGHwAAAAAAIAExLOIpAABEzgaRow2V/RAAAAAAgCKqcwJ9BgAqB15ECdvY4AMAAAAAACQghkU8BQCAyNkgcrShsh8CAAAAAFBEdU6gzwBA5cCLKGEbG3wAAAAAAIAExLCIpwAAEDkbRI42VPZDAAAAAACKqM4J9BkAqBx4ESVsY4MPAAAAAADwX2LYQik1WCk1TSl1tlJqIR9zG1SfWH3L1su36rg+V11xlb7phptS+1x+7VY9buMkPtjA0wemXDVNz7h5ll740IV67YubtA3C77QhDAB07tVBn7V1Yq4/U1ZWa1OB7N69u/7sk8+s/uz/aL9x/5RSn/+XdGbzp6ZKqdOVUt9QSr1tOtDsp8I4Efsq7FeUa6h+g/q6y4CD9fHzT9Bn3zs/dRgIAwBFGTPTfgIA9kLB4UqpO5VS/2o6uOyHaOED+EBYH2h36AF61EVj9Mrn1qUCAwBAfD4MANgHAAcrpf5JKfUfYS9c9o/vwsG22LZoPtC0dVNdvfxkvfa3yd4iAADiu9YAAHsAoJ5SaqVS6n8ULbDQ3/gucGyLbaP2gfbdO+g595ybWDUAAIjPhwEAOwCgvVLq8agvVI4X34WDbbFtkX2gflV9PXLZyXrdS/E/KQEAxHetAQDpA0A3JvfF5+BFDtL0Hb+K2wf6je8f+y0BACA+PwYA0gWAvkqpP8d9kXL8+C4gbItti+4D3Yf11Gt+szG2WwIAQHzXGACQHgDIZL/3ix486H98Fze2xbZJ+cDh1b31xb/bHAsEAADx+TEAkA4AyLP9ryV1cXKe+C4gbItt8YG/+4CsG+As3hPlNwAQ3zUGAKQDADsIGvE5NbbFtvhA8j5Qr349PfO2MyOHAAAgvrEEAJIHgLEEp/gcGttiW3wgPR9o0b6FvuiZiyOFAAAgvvEEAJIFgCZKqX0EqPgcGttiW3wgXR84Zs5xAEBGls4GAJIFgKUEp3SDE/bH/vhAvD4g7xK44LHlkUEAFYD4xgsASA4AGiqlPiD4xOfM2Bbb4gN2+MDgWccAABmoAgAAyQGAvL43srfKtTm4re55Yi89cOogfdS0yp+hMwbpEbP4YAN8AB9w94Hjpw3U/Ub00E1bNo4sPjVq1kiven59JBAQpgLQ9qBWuY9/Qyb1Mx43ACA5AHg4NADUU7rfuP56/v2LfF9YV75Wo+/ct5kPNsAH8AFPH7j9zQ36gu0zdZfeHY0FpTTGTb5iqu845fXYYBgA6F/d07PPeYiNlz+5xHi8AIBkAKCZUuqvpRdH0J8bt2isT//a7MAXFAAA/OQhyNGH5Px4255NevT8Y41FxYltvU7qEzheuYEAAOA99gCAZ2X982Qk3vssY5yLwuS7QaMG+uxvzje6mAAA74sHYcE++IC7D0xYckIoCGjSqmkkqwMCAO7j4/gtAGA/AGwxEX5nn7HrJhiJv9A0AOB98TgXEd/YCR/4sg9s37tJ9z7usFAQMP8B/7cr3bJ/+R0A8OVxKfdTAMB+AHjQEfOg3+0OPUCvfXETAMD929zfyywPbPzbO/AnYZ+NDy8IBQCnXjPdOHY5QAAAePsBAGA/ALwaVPid7U9cMirUBUQFwPviSSKIcg7GIMs+0LXvgcYQEDZ+UQGo+9oBAOwHgI8cQQ/6Pffb5wEAZP9k//hAaj4wdsHxxgAw5MxjQ8UvAAAA2P/RfmP/U0pZMQnwX4MKv7P9sidWhbqAqADUfQFlOTuj7Yxv3D4w69LxxgF4wKlHh4pfAEDd/k0FwP4KgFCI0UW0+oUNoS4gAKDuCyjuAMrxGYMs+8D8G08zil0S8/pNODJU/AIA6r52AABPbbWiAgAAUMJNrYSbZfGh7XULQNw2AgDSHwOvMQYAAICKlE0FwO6L1+vC5m+MnQ0+AADY7YcAAAAAAFBhoMKAD8TiAwAAAPDZJ5/ptD55mATILQCCcyzB2YYMkTbYLRBhxwcAsHt8qQBQAaACAGAAGPhALD4AAAAAaWX/cl4qADtrKgq8zJL1+jAHwO6LN2x2xv6Mb9w+AADY7WNUAKgAVIQAAMDuizfu4M3xGf+wPgAA2O1DAAAAAABQ/o2l/BtWPNjfbvHwMz4AgN1jCAAAAAAAAAAA4AOx+AAAAAAwB0CF+o+nAAjOsQRnPxkc29gdwG0fHwDAbv+hAkAFgAoAgAFg4AOx+AAAAABQAQhVAKh9I5HRetq8C8Dui8/27I324T9hfQAAsNuHqABQAaACQPYXS/YXVjzY327x8DM+AIDdYwgAAAAAAAAAAOADsfgAAAAAcAuAWwCxBBc/GQjb2B2AGJ98jw8AYPf4UgGgAkAFgOwPQMMHYvEBAAAAoAJABSCW4EL2aHdwYXwYHwDAbh+gAkAFgAoA2R+Ahg/E4gMAAABABYAKQCzBhQzT7uDC+DA+AIDdPkAFgAoAFQCyPwANH4jFBwAAAIAKABWAWIILGabdwYXxYXwAALt9gAoAFYBCVgBufW2d3vjwAr3ojhl63rVT9KxLx+upa0/S4xcN05MvGln78+zLxuvzvzZdX/zgOfqa51fo7W/bfTFHLbg371pba6Pzb52mz6gZV2uTiUtO0OMWDvu7fbZM0AtunqrX/3C+vmnnmkxA3u27N+iV35mjp68fraUvs7dM0Bt/dF4m2l46vtv3btKbfrxAn3v9qfrcG07Vq/7pbP2119ZZ1w8AwO6YAQAAALkHAAmMK755ph6/eLjuO6ybbntQK6OllZs0b6R7DO6qR541REtgu+6Fi6wLuKUiEfTnLU8s0WdtnaiPmdxftzmwZWAbtWrfXA8c3asWDgQKRKSCtiGu7QXeBGJad2jh2q8ufTrqld+eY017K9lh255NetYl43S7Lq2/0o/GTRvq6jlD9A2/W2VNPwAAAIBbANwCSDwgiTjP2DBGHz70EN2gUdVXgqVSnuTna/t69ZTu0rujnrDkBH3JTxYl3sdKIhHk99e/uErP3DxWd+3XyVefg9hNgGDYjKP0Rd86K1UYuP3NDXrAyb3q7J+M57R1J1s7jre8slb3Pu6wOvvRumPL2spNED+Ia9ssA4BcE1IBzPNnZs24Ov2p0jXfvXt3naa4+zn3/o/2G/dPqdr38IRT7wj25nXAPidoSaCXknT/6p66flX9MANvtG/nXh306ZvGaimdxxVQozru1b9ark+YebSuapCMnaTqMmVltb5x5+rEbXP8tAGBxvO8m6cm3sa6xlWqKX2GdfPdj5btmumrnlmWej+yDACVhI/f/z15AgAiUHcfhwAA6gAAKfFLFtu2k1lpP+oLWm4VVJ89VF/93PLUA3C5sEgWOfb843XDJg18i0mU9mncrJEePf9YLQBS3rY4/r3qu2cH7mez1k30La9enEj7/PZZbs0EHYcjRx2eeh8AgPCVxqDjntT2AIAP9Y5gEwCgAgDIhC6ZuNfygOaBg2MSF4ncejj5nGO0lNn9Bvo4t5P78h0OaWuFrRo0rNIjZg2K3TZHj+1j1F+p5MQ5FkGOLfMXOh7WLnA/5JbGlicuSLUfAAAA4KdUH9c23ALYWVNxkt+6Ov525Ws1qQYPryC5/N4zjYJiEsJffo4mLRprudcmE7i8+hTn3+TedlLl/vL+e/27Wasm/7DNxshtI8IpFQev81f62yH9D4q8Pabju+775xr1Qfom82BMzxvFfgAAABCXuPs5LgBQh8h7QYCNACCT+wZP6GscECsF/CR+f+iRB+nNj56faEAWEZQqRBL9C3MOmUwpj7VFITrOMcRXwrRJnopwjpXm95jzjjPuh1RZ0mw7AAAA+BHquLYBAHIEAPIon8wsDxPU0963UdOG+oLtMxMJyiL+J84enBl7yW2B01aPiuyJAbn1Ema8J68Ymcg4eQm0jKHbI39++yUTPb2OH/ffAAAAIC5x93NcACAHACClc1m0pV79eqECut+gGfd2DRs3SGTxmUkXjsikvQacdLiW+R1hxUnEs3nrpsY26NT9gNBtCNuHMOV/8eNTV41KtQ8AAADgR6jj2gYAyDgA3Pr7i3Xf4d2Ng3jcYm56/MMGdI51ZcELv3FGpoHpqLG9IxEuOY7pGMl+mx5J9pZNOTCEKf9L+2WFwPJjJvlvAAAAiEvc/RwXAMgwAEgJV4QyTAC3ed+1D5wTS3C+6tllWh5ls7nvftomS9yGFasFt0wLZQd5ZDJsG0z3D1v+l7UAtu2JfnJlkP4AAACAH6GOaxsAIKMAIIuYHNjtgFDB24/IpLnNKctOjEVcsjpJsnwsZGJgELFx21bWiDB9EkDaIwsYiRC7HTvu3637gfnsf2n7yDMHp9LuUrsAAABAXOLu57gAQAYB4NoXLtLtu9rxvHq5KEX57+OnDYw8QK+9f56W57+jbGeax7ri6QtD22joKUeEskdclZpSoXT7OWz5X1565HbcJH8HAOTnWiyPAywEFMEqPz4OUaiFgGSlujjWpS93Xhv+Pfz0oyIP0PKyIhv6FlUbLtwxK7SNlnz9jFA2kVUdkxRNOZdUHQ7o0sa43TaU/6UfAAAA4CdTj2sbKgAZqgDc9sb62pf3RCUedR1H3p52yBGd9JBTjqhduldec3vampP0pKUj9NgFx+tjTztS9zrmUN2ibTPjQOzVhlNXVkcqLPJCIq/zmfytflW9v9toUj8tGam8+EhelyxrCwye2E93OLRdrBWHKB6ZvOOtjbp5G/OnAdIQU1m10WS8nH3k8c+kocXtfAAAABCXuPs5LgCQIQCQjNgJYHF8y9K88lY4eS3sJY8vCnRvV9aul2B23NQBkU2wi3rhm5PPPTYS+8mLlI4a01sv3na6rzXx5eVH8irdk+YOrfi6XdPxjMpG8jy8aRtkP1mDwk3g4vrdmAXmi/9Ie215tTEAAAD4Eeq4tgEAMgIAYQJFXYFd3vU+e8uEyN5EJ28dlMxUHk80vd/ed1i3SAVF3hYnmWpdtqjr7/LGuct+tti4bbJmg7z+V15EY2obp42StUv2HoXIiiA6xzX5HjY9+vkaXv0KMwdGKlZpz/53+hbmuu434UjjZcydFU5n3DrbeNxbtG+h+4zul+tP92E9je3DHAAfN/Aj2CT3cwDkhSVhZmpXCujyCKHc/41zFnfNowt9vWu+tI2y/n3UL2m59KeLjS9kp21SQRCQcIJ32G+5JRHmiQS5JRO2Dc7+0q82B7Y0tpG8z0FuUTnHi/M7bPk/7eV/S22TZQDoMbxnaABxQMTW74UPXWh8TQAAEai7j0PkGgAkY5QXrzgiFMW3ZI5nX3VKrMJfGuTkZ1lwRVaOq6v9kqWvuW9e5EIy95rJdZ7bq20yUz4uUFr9vbm6c68OgdonE+CifiXvSfPCvRNBbomUj3sc/5b5J15jVdffpAITR7tMjgkAmL+MLQloAAA8b9GI9qb+X64BYNYl40IFu/JgeGR1T33D79J5/a4sXytvX3N7PbG8iU8e+5O5BCaBtK59JOsrt4Xff8tyuTfuXB1Lu5x2i21kEqGf5Zxbd2ihpaLh7BvVd9hldYdM6hd5m9z6FuaVzTaV/6VvAAAAENf9fT/HZQ6AxXMA5G1tUg73K1Re28lsdXnlbVxZrFugrvQ7qWpIlj/v2sl69mXjtSzLKxPlKm0fxe/7V5vfy5PSfxRt8HOMNffN1Z16tHcdc5kzIEv3XvP8itjaI08tePmR19/kRU6yNLWffppus+Gh84zbJ223qfwvNgAAAAA/Qh3XNgCAxQAgj9l5BVy/f5OX6yy+I5nyrGlgj3u/bgO7GNtyaQTP2gfpn0CaTMqTxy1FsOSRNamcXP5k/K/fHb94uLGdxB/n33RarAAgSw/79Xu37VZYVP4HAOwWf7nFwC0AbgFUnOhy5Ws1sQU7mWnupxzsFuRKfydZmQ0rngURwDi27XiYeWZb89jC2MY5jr6GOab0tdR/gv4sTzeEOX9d++ap/C99pQJgNwQAAABAKgAgz9MHDb7l28t99aSz17oCeFp/P6ine1m93GZu/5YnGdJqdxrnDTohsdRm4nM3vhTPfImNPwpX/j/hjKOtG0cAAACIq7zv57jcArDwFsAVv1yqZbGZ0sBq8vPcq0+xLuClIWhyzjBLAMsTE2m1O43zygqMJv7m7DPnikmx2Esee3TOYfKd9GJFfsYOAAAA/Ah1XNsAABYCwKi5Q0MFOgmOw2ZEv46+n4Bm6zYDTjrc2Kay3LGt/YqjXfKCoTCLFPU+7rBY7BVmgqI8+mrL4j+lYwYAAABxibuf4wIAlgGArKIXZl12EX+ZRS6veS0NNEX/OezksXOvP7VQ9pRFokyybNlH5q5E/aTCxocXGLdH2iRLHdt4DQAAAIAfoY5rGwDAMgBYdMeMUIFOMjcm/X31/fSLbg9nV7m3LY8tRrkSoI2C5LTp9I1jQvnhzM1jIxXc8YvClf+X35vsuwocO9b1DQAAAHGJu5/jAgCWAYC8ZMY085L95NHBuoJOEf8uCwyFsauzr6xBP33daH3TzjW5tvO1L1ykZe0Ip99Bv+Wxyyj9LGz5P6p3JkTZJzkWAAAA+BHquLYBACwCAFnatUHDKuOgK1nqlc8sjTTwRh3w0jxemLJ2uQDKmxMFtjY/en5u7d3r2EONfVHstfWpaNYtkDcelts/yL/lLZpp+p3XuQEAACAucfdzXADAIgC4cMesUIFOltL1CjZF/9usS8eHsm8l0ZFJggtvmx7Zm/lsGaeztk4MZa9TV42KxB/DLk60/J7ZkbQjjnEBAAAAP0Id1zYAgEUAIGvBVxIZP78v0oI1JsFYnk+XhZH82NJkm1btm2uZbLjliWgyX5M+RrmP3OYIU5GSyahRtCfMIk7NWjfRMrE2inbEcQwAAACIS9z9HBcAsAgAuvbrZCxO8sbAOAJU3o45YckJxjYOAgUyHpJB35rxpzHk5VFB+l2+rbzyOIwP5bn8L3YBAAAAP0Id1zYAgCUAcMsra0Mt/Rv1rOswQdvmfWWehdvbCMuFK6p/N23ZuHY9fxEym+1SqW1hBEpsKMBV6dh+fp/n8r/0P4x9+004suIqpX5flTvj1tnGgNdjeM/Q5/fbzrS2YylglgKu6ORRvgtg/Q/nG1+IEmijmnDlJyhnfZtzrpsSytamcCCTEKUqIBCSFRtKBaNxiNsm8tREmDdQHtjtAOOxsr38DwDYnf3zMiBP8Zfr8nNlwX/SCKMgsfqFDRXF3Q9xRgkAstCMaT/aHtQqM4Jii/BF8a4F0/ESQZWVGgX6bLGHVzsGT+hr7JtiI9N+bnrk/FDnzcJqmFQA7IYAKgCe2goAeAXOIH+bGOLe9DGT+2dCSILYI+5t5b31Xfp0DCUwpgBQut8hR3TSsnb+bW+st3YM5VXSpW0O+vPJ5xxj1LcJF4R7NfGyu+2d/e/4NwAAAMR1f9/PcZkDYMkcgCGT+hkH2Skrq40CrBOEivp9/YurdJg33wUVQq/tZV7C1LUn6dtetw8Ebt+9QTdr1cTYP1t3aKG37dkU2Ec7dQ9R/m9l9+x/55oDAAAAP0Id1zYAgCUA0HdYN+MAK8+gOwGF768uA+xlk+t+s1J36Z1+JcCBg7adWunzb51m3XjKGhNOG02+gy5PLQssmZzH2WfY9GysiQEAAABxibuf4wIAlgBAt6O6GAe8dT841zrB8BJd2/4mL05Kc06AI1ql372PP0zLW/lssZWspV/avqA/n3BGsJfxhH1cc+lds6yxndcYAgAAgB+hjmsbAMASADioZ3vjAHvpTxdnIth5BUIb/jb3msm6RdtmxuMQVBTr2r5Ji8balrcQSglfFjqqq82V/h50Rn4Ryv/i8wAAABCXuPs5LgBgCQDITP5KwbOu31/93HIAYF+w0n8l4JD1GGRNhTAvn6lrvIL+XbJnG15mUz1niLGPSp8v/MYZvvy05tGFoc6TpSWxAQC7AWD+A4uMfbFXr17ajwinuQ0AYAkAtOvc2tjRrnp2ma/AWkn0+P1X4UFe+yvvZuh3Qnctr1gOKtpRby9zRG7etTbVcV5z37xQdjhmir+nVcI8ESN2X7ojG+V/KgB2i788Cj7zNvNbX4MGDQIAElgnIBfrAHQ+vINxcOUWwFcFPEqoueznF+iRZw3RjZs1Mh6jKICg+9EHp7qIkCzoc0CXNsY2kPUP/CyNLO8QMLWXPK1g89r/5X5JBcBuCDhh0UhjX6weWQ0AAAD+xCnUJMDvMwmwPLDG8W+5PTD7svGpPjVw+NBDtDyWF0f//Bxz7ILjjQOiiHpdTzjIC61MxV/2O37agNRs48d+5dsAABYDwEs1usPhBxr749y5cwEAAMAfAPQd3t3Y0eoKquVBh3/7GxMvO2380Xm1a/zH+XbBSkIoTyx4tS3Ov4V9Oc9RY3p7tn3ShSOMrwOxl9y2ibP/UR8bALAXAE69enooX9x6+VYAAADwJzZDTjnC2NkmrxiZqaAXdRBN83g3/G6Vnr5utA4za72S0Hv9XlYPTKvfYZ5YadCoSt/08pqKbQ9d/k+xOmIyHgCAnQBw4U8v0i07tjSOyXLtPvboYwAAAOAPACYtNc98ZBVBk+DDPv7Gxq+dnKpAk+bxzxWQ++lprRNwyvITQwVGedzSzaby6mAv6Knrb2lWRtz64+d3AIB9AHDBY8t1h57hFgdr1qyZ/tMf/wQAAAD+RGb+TacZBz9ZajXMG9f8BCq28TeOYid5z4CIXM8hXY3HtC6xk78PHN3LVUjjHit586Sf9lXaRp6scGtjGAiWc/l9zNDt3Gn9DgCwBwAu/t1mPemyKbpZO/P1LhyfnzhhovXiL48f8higJY8BSvboOI/Jt8xUTyuIcd7KcLDliQv02POP1y3bxbPA0Nr756Uy7vISIxM/lX3qV9XTsgRzud+EubUgiybZ/EKl8r46/84yABw8sKue950Fmf6ctWOennzFVH3MnON0my5tjX26/Fq49557AYAEsn85RS4eA5SsUQJjuSP5/fe0dSd/JaA6QYbvygKdlG1k5r6s6hf1ewf6j+yRyriLv/n1TbftZl06/kvtvuTxcOX/Y0878kvHS2pcw54nywDgNq78TukOHTpkovxPBeCFDVoWezD9XPlaTaRB57ABnY2DqqwjEDYYsX/8oCALDAkIhFn5sTTI1qtfT0tJPumxk9Un5dylbQnyc4/BXb/U5lOWhZtXsOTr/lYZTNpOdZ0PAEh/ka0gfutn28suvSwT2T8AYBkAjFs4zDigimPKbYS6Ag5/j1/k/dhY1hQYMWtQqPF2gpFMyvNzzqi3CTPHQVZXvPKZpV+0u4jlfxkPACBfANCxY0f9wXsfAAAJlf9zcwtAgsGyu2eHEoShpxzxRUCNOthzvHjAQd47EHap4a59D0xl3GVRJAdCTL6nXfz321Yyf8Vkf2efrJb/AYB8ib/44/Zt2zMj/lQALKsAyDKpDRs3MA6GModgyxPJl4OBg3BwEFZIBSBu3Lk6cQi4/sVVun5VfWN/dcAl7GOFWS3/AwD5AoBR1aP0px9/CgAkmP3nqgIgAWHwxH7GAVUI9OhxfRIXAgAgHACI/eQZdiejNfleelc6K+D1G9EjVLvlPRZh3oMhay5kcfa/c81wCyAfECAT/958481MiT8VAMsqABIUJJsxEYDSfbL0NjQnEBb9Wx6La9jEvPojtxLSsOG8a6eE8tewwOv3DYNp2MbPOQGA7ANAkyZN9OM/eTxz4g8AWAgA8t73lgeEW4iifde2WiaZ+QlAbBM+e4/KhjKHoxTkgvx88rnHpjLe4mdhwCVIH922XXLnzFT6HdWYhwGACVMn6pc/3BXqs/2+O419zm08iva7Bg0a6H/6zj9lUvwBAAsBQALLmPOOC31RsjywPcLuVywkizcNoMNPPyo1ITxqbG/jdpv2V/bLevlf/CIMAMyYMSO08Pz6V79OZezCjLst+zZt2lR/77vfCz0GIsRpfVgJ0KJ1AJe2TUMAABcRSURBVByhuPpXy7W8NCWso6dVFnb64edbJpLJ0w9nbZ2oF9w8VV/+ZDyTGGtX5FtwvO5+9MFaKiSyII+8gGnR7TP0tj2bUhPPUhudfdUpxmOeZin8/K+Fe2uaqZ+n2efScQvzc9oA8MlfPqlduMZ0DIq6X+fOnfXPfvqz1IQ7KmAAACwEAAkoJ5xxtLEYOBelLNQiwTlMgIprXxF6yRzdZpHLMrNRlXZlBb5Rc4d6LlpzcJ8Ddc2jC1O302lrTjIec/GXuMaqruPKJDxZitfxu6S+L9ie7fK/2DVtABAhWbF8ReJjl5SPxHGesWPH6r179mZe/GXsAQBLAWDrLy50FcegDi2VBNvekb7ojhm+7htXzxkS6iVHt7+5Qfudpd60ZWO95r65qYmoiEHv4w4zDsTyvoG6hDrOvx976pHGbQ/q07J9bfn/9fWp9jkKe9oAAH/Y9wctGa3JOBRpny5duuh77r4nF8LvVBAAAEsBQIJLVCvFVTWor8+5booVwVLEX9rjN3CMXWAubGMWBJtLIa/YXfntOanYSRbDcauG+LXT7C0TUmm3I4Ly5Inftkax3TGT+6faX6ffYb9tAAARg6efelq3bRvdy3CiGGNbjtH14K762muurc2WHeHMyzcAYDEA3PjSat2ibTRvkZPFYiZcMFxv27MxtcApr2tt0DDY3Aa5jbH+h/MDt/mqZ5YFAg0n2MiM9jRumxw56vBQApp29UKeXonKV52x8PpevO30wD4RVqzj2N8WABBB2/m7nXrYsHDLkXuNWZb+1r59e33GzDP09x/8vv74zx/nKusvhRcAwGIAkIATZmKY2wV3+NBDtLzIJY5g5nXMxXecbrzKockSx6etHmUsqAJLo+cfq0XUvPoU1d+mrxtt3FYZY7nNc5sF5fCoKlZuflv6u8bNGlnR3yjG3yYAcIThsUce00uWLNFyr/voo4/WAwcOzO3nuGOP06NPHq2nTp1aOxfitq/dpn/13K8yt6KfM3ZBvwEAywFg+9ubtbw5rTQAhv1ZAuj09aMTETgR0QlLTgi13r1MMBM7BAm4R40J/2ha514d9Jr75gU6b5A2yrZzrz4l1GugxRcE6oKeN47tV3337Ej9tJKfmwBhHP2N4pg2AkBQEWH79B7jC2t7AMByAJAgI29Na9a6SeTBtVP3A2pfTRvXbQEp3Xft1ymSdl/z/IpAItdj0MGRnFeqASI48r76KAK+cwyZoDh+UTTl1lmXjIu0bU4bg37Lq47bHNgyErtXEn/5vVSTgrbN1u0BgOyKZ1jxtWF/ACADACDBS+55ihh5BUbTv8lz8VPXnqRl/YEoAuXa++dpycCjbG/Q2xZ+Z//7tZnMRRg4ulft44lhbw0sv2e2Fvjye26v7WRC5XUvXBTJuEUx9rIioVd7w/4tT+V/sTcAAACkCQIAQEYAQILFSfOOiTW4isj1OuZQPWVltV77wDlaslQ/oiDPgV/84Dl60oUjtJTNwwb58v1lYl5Q0R2/eHjk7XDaJZPdjp82sPbJiqueXebLRvJY5xk140K9+MY5f+m3bbPhpepT2r6of5bFm/z4ZFa2AQAAAAAg3OsDPzcNMqstXQq4UvASEew/Mtzb14LYSl4v3OGQtrp/dU99/LQBWp7LH7dwmJbH62ThmQEnHV67ol6Qx/qCnN/Ztu/w7oGD/qZHzo+0AuG0xe1b1hA4bEBnPXhC39pHN8U+MolQ3vAn49W6Q4tYRFEqLJt+vCCwbSr5V1S/73hYu1j6K7aXx0ijaqcNxwEAAAAAAADwHdRufW2d7nZUl9gCrJvApf070/e9y6uR0257nOe3Lft3BHXikhNisXujpg21+L9znjx8AwAAAAAAAAQKarI+QKce7WMJsnEKlsmxZblg00B/487Vtev+m5zX9n1k0aKg8yJM7Rh0P1nUKA775fEFVwAAAAAAAACBRU4mfkU1wz6OYB3FMeWFPTftXBPYNqWCJSLZ4dD4StJR9NPkGHOunBTKLqU2iuPnLn06Rg4B8uKmONqa5jEBAAAAAMgoAFzxWk2qAenmXWtrJ+2ZCIjt+7Q/uI2+NqLZ7fJ0w4Hd8gMBg8b3TdXv/AhmmIWY3Hwzj+V/sSMAAAAAABkFgK2/TxcAJIDIDPy83euWjN3v7Ho/YiTbXPPrFbpr3wMjz0rdxCrO38mbErNwH1yWYo7yMdA8lv8BAMQ/TfGXc/MYYIjHALdYAAASRGSVPFnZL+7Z+HEKm3NsKfuLWPsV9iDbyXK5x56W7FvrnH5F8S2z6+OyTRA7+t02ysmqeSz/ix2pAAABaUIAABACAGp2pV8BKA3GGx46L9OT3uSFOLe8sjYW8S+106xLxwd+KVEUAh7mGLJwUJbEX+w9s2ZcJBWXvJb/AQDEP03xpwIQch2A9S/bBQASUGTSnDyjL4v6hBGcJPeV1+CeurI68Hr/paIe9OfNj56vuw3MxuOUsjiTPPkRtI9pby8TVWUtibC+NHhiv8z13a/tqQAAAWlCABWAEBWAdTtr9G17g72kxm9gCLvdxocX1C5OEzb4xr2/rBxo8rrfsPaR/WXteqkGyEI+cffT5PhyD/2kuUMDr4IYhW2iOkYUSzIvuXMmAKC+ugz4jBkzcvua2jRFsUjnBgBCAsB1u+0EAAng2/Zs0mdtnahlRr2JAMW5T5PmjWqXHPa73HBUguR2HHnaoPrsocavK47DTu06t9Yrvnlm5oVv2d2zQ/mePL0hfuw2bnn4HRUAKgBpAgcAEBIAtvzeXgBwAqRkuud/bboViwfJREV5b7xNL7Bx7HT9b1fWLnUs95zjEHU/x5T3Hshyy7f+/uLciJ7pq5mlApIHCHL8y+0bAAAAAICMPgYotwDW76zRdwR8V71bIEjidwICS3fM0vJCFREaP4IU1TatO7bUky8aaaXwl9te7rfLi3tkff+o+l/XceQ2hLwe2EYwKrdP0H/f9PIao5dEyRsqg54ra9sDAAAAAJBhABAIuO4N+6sA5YFRZtvPvfqU2hf6xHUPXN6aN2z6wEheoVve/qT+felPF+sJFwzXhx55UCQT2kpBQCZqHj70ED33msm5yvjdxkagqvfxh/kCqgaNqmrnZrgdJ2+/AwAAAAAg4wCwybLHAYMGSbnHKhPxTltzkj56bJ/aV9Y2aFjlK1g7gibl2nZdWmtZpU7WJJDXCeft3q08YbH4jtNrJ+aJmElVw+m/n2952kHWORAoksB//Yurcp/hlvqirFdxznVTKlYD5PaQVKe2PLGkMHYBAAAAACDjACBVgBvezF4VoDQ4l/8s4i3vsF/57TlaFmGZd+2U2qxMyrIzNoypnVx43s1T9fJ7z6wN2Lfv3lCYoF1qK6mkCDxduGOWXnDLtFq7TFt3shY7zbpknD77qlP00rtmaakkyEJEpfsW+efLfra4FgYEFuV2i9hPbhUUzSYAAAAAAOQAAKQKsH1fviCgaMGY/uK/SfsAAAAAAAA5AACpAlz1un0LAyUd0DgfIooP+PcBAAAAAAByAgACATe/5f/iJ1BiK3yg2D4AAAAAAECOAGDjrhp9u6WrAyI2xRYbxt++8QcAAAAAIEcAIFWAzbs2Z2ZtAETBPlFgTIozJgAAAAAA5AwABAIueSU7CwQhOMURHMbarrEGAAAAACCHAOBUArgdYFfARQAZD5t8AAAAAACAnAKAQMDGl2v0zTlbI8CmAEpbEPQs+wAAAAAAADkGAIEAeV/Ala/X6G0ZeWdAlgMqbQcIsuQDAAAAAADkHAAEAmqrAbtq9PW7N7NgEAsmFW7FuyyJcpJtBQAAAACgIADggICsGnjtGzX6dioCCCEwVGgfAAAAAACgYADggMD6l2v0pa/W6GveqNG37tms5WUpSWYfnAt74wPp+gAAAAAAAAUFAAcESr83vVyjL3u1Rm95dbO+/Pd8sAE+kGcfmHHVaYHeKFn61skZM2boNMWDc2cfXvZ/tN/Y/5RSn4eT7mj2lkYYdWL1Cxtq782XCjA//32+AnbADvhA/D4weSsAAEikBxIAwD8m6BHs4g922Bgb4wNf9gEAID3xAzw+0wAAAEAVBB/AB1LyAQAAAEgTRACAlC58MqEvZ0LYA3sU0QcAAAAAAAg3F4A5AEAMGSw+kEkfAAAAAAAAAMhk8CpixkafqVRE6QMAAAAAAAAAAAAZLD5QQB8AAAAAACAcAPy76WOAK59bR9AtYNCNMoPjWFQEwvjAxEunGD3CLDFv5ukzWQfgEwAiDEDkYRLgJ6YAsPChCwEAAAAfwAdS84ETl4wyBoD5584HAACAUD6QBwB4xxQATr1memoXfpisgX3JOvGBfPhAnzH9jAFgxfIVoYJ/mMyRffNRecgDADxlCgD9xvUHAMj+8AF8IBUfWPX8et24eWNjALjh+hsAACoAoXwgDwCwzRQA6tWvp897cHEqFz8ZXD4yOMaRcTT1gTDlf4l5P/7Rj0MFf7L4fGTxYcYxDwCwwBQAZL+Dj+qq1/xmIxBAFogP4AOJ+cD8BxbpRs0aGWf/VVVV+p233wEAqACE8oE8AECPMAAg+/Yde4Re8wIQYJrJsB9ZMD7g3wdk8nHrzm2MxV9i1sCBA0MF/jBZI/vmp3KQBwCQhwj3hYWAzkd20ed+b2FiGQAB03/AxFbYKg8+cPHvNutTLj9NN2nVJJT4S6xbtXIVAED2H9oH8gIAl4YFANlf5gT0PLGXnnDJZD33W+fpC396kV7x9Fo+2AAfwAeMfGDhjy7UZ35jrh5xQbXu0KNjaOF34twLz78QOviTyecnkzcdy7wAQDel1H84FwffKrJAgy2xJT5glw8MGTwE8Sf7j8QH8gIAchvgewQquwIV48F44APR+8B3vv2dSIK/adbIfvmpHOQJAI6gChB9sCGAY1N8wB4f6N+/v/70408BACoAkfhAngBAqgC3EKzsCVaMBWOBD0TnA/Xq1dOPPPxIJIGfLD4/WXyYscwbALRSSn1A0Iku6GBLbIkP2OEDZ599NuJP5h+pD+QNAKQKcKxS6v8QtOwIWowD44APhPeB3r17648++CjS4B8mc2TffFQQ8ggAAgHLCDrhgw42xIb4QPo+0LZtW81jf/kQXNvAKa8AIBBwFcEr/eDFGDAG+IC5DzRp0kQ/9uhjZP6U/mPxgTwDgEDAOoKPefDBdtgOH0jPB5o3b65/8P0fxBL4bctEaU86FY68A4BAwBKl1F8JZOkFMmyP7fGBYD5wSNdD9LPPPIv4k/nH6gNFAACBAJkY+B5BKFgQwl7YCx9I3gcmTZzEm/4Q/liF36m4FAUABAKa/e1/lyml/jdBLfmghs2xOT7g7QOdOnXSd9x+RyKB3xEAvtMpvdti9yIBgECA/CevD97BbQHvYESwxj74QDI+cOCBB+qtl2/VH77/IeJP5p+oDxQRAP7BAaqTUmqVUuplpdR/EuySCXbYGTvjA0rL7P4J4yfoe++5V//pj39KNOjbkn3SjvSrD0UGAAcE5LuDUur0fzw6+AOl1EtKqb1Kqf1KqX/hY2aDBg0a/I/WrVrrWD+tW+s2bdrwwQZW+kDXg7vqvn366mOGHqNnz5qtazbX1C7ni+inL34AyGcaACjFAH6O1AL73to3dt+efTruz8d/+pgMitIpPoAP4AMBfQAAiFTyOFipBZICAO6dkk2RzeED+EBwHwAAShWLnyO1QFIA8M7ed/QnH38C/QekfwJm8ICJzbBZnnwAAIhU8jhYqQWSAgC5xfDHD/4IAAAA+AA+gA8E8AEAoFSx+DlSCyQJAPv27tMf/4W5AHnKTugL2TY+EK8PAACRSh4HK7VAogCwZ5/+4N0PoP8A9E9wjTe4Yl/sa7sPAAClisXPkVogaQCQWwHi0LZfdLQPYcAH8AEbfAAAiFTyOFipBdIAgNpbAX/mVoANwYU2IHL4gN0+AACUKhY/R2qBVABgzz79h7f/oD/5C08FEHztDr6MD+OTtg8AAJFKHgcrtUBaACC3At7d9y4QwHwAbgfhA/iAhw8AAKWKxc+RWiBNABAI+MO+P+iPuR1AAPQIgGlnYJyfKkCaPgAARCp5HKzUAmkDgECALBLEuusE2TSDLOfG/2z1AQCgVLH4OVIL2AAAAgHy+eC9D7glQCZMNQQfwAdKfAAAiFTyOFipBWwCgC+qAR/+SX/68acEgZIgYGt2QrvInPGBeH0AAChVLH6O1AK2AYBTDZCnBP744R8BASAAEMQHCu0DAECkksfBSi1gKwA4ICDzA97/w/t6/4f7mSyIEBRaCMi04820bbUvAFCqWPwcqQVsBwAHBJxvAQJ5fFCg4MP3PtQfvf8RH2yAD+ADufUBiXlKKdPP55EKBgfLhQXGKaUeUEr9WSn1n02bNNUDjhygV69arXe9tKt2Qp4juHz/fYIidsAO+AA+kIYPvPH7N0zFX/YDAHIh2dF0oo1S6lEvmmzbtq2+6xt3AQH/eDIhjQuecyI0+AA+4PgAABCN+BX9KC2UUq94ib/zt6qqKr3t9m1AABCAD+AD+EDKPgAAFF26o+n/XY7A+/lu1qyZfv7Z57n4U774nSyAbzJCfKCYPgAARCOART5KL6XUf/gR/tJtzjrzLAAAAMAH8AF8IEUfAACKLN3R9H1zqbD7/bldu3Z6z+49XPwpXvxkfcXM+hh3xt3xAQAgGhEs8lEe8iv65ds984tnAAAAAB/AB/CBlHwAACiydEfT92fLhd3vv+//3v1c+Cld+E4GwDfZID5QXB/4/a7fh3kM8N+jkRCOkmUL/Nyv4Jdvd9uttwEAAAA+gA/gAyn5wFNPPBUGAD7OsnDR9mgs8INyYff772VLl3Hhp3Thk/UVN+tj7Bl7xwfkkWy/8dplu3eikRCOkmUL3OziGL6cqm/fvgAAAIAP4AP4QEo+MG3qNF+xukKMfzrLwkXbo7HA4grO4cux7t5xNxd/She/kwXwTUaIDxTPB2QSdqNGjXzF6Qoxfls0EsJRsmyB4yo4hy/H6nZYN94RAAAAgfgAPpCgD8gj2CNPHOkrRnvE90VZFi7aHo0FGiil/s3DSep0smHDhmmZjUoWUrwshDFnzPGBZH1g75t79Zyz5tQZl33EdFkEjv+wgPqxD2fxdLg+vfvoHz/0YyAgwSyAwJts4MXe2DttH3jul8/p6pHVnrHYZyx/F93DAo4FZvp0Gk/Hq1+/vh47Zqy++cab9S+f+qXe/dpugAAgwAfwAXzA0Aek1C/vXdnx9R36jJln6MaNG3vG4ABx/Aon+PONBZoopf45gPNE5YQcRylsgA3wAXwgSR/4T6VUb2QPC5Ra4DIAADHGB/ABfCD3PvDD0sDPz1hALNBOKfWvXPy5v/iTzDQ4F5ktPmCXD/w/pdQgJA8LuFlgBQAAAOAD+AA+kFsf2OEW+PkdFhALVCmlXuLiz+3FTzZmVzbGeDAeSfqArP3fHqnDAl4W6MmtAAAACMQH8IFc+YCU/sd5BX7+hgUcC0xTSonDJEmnnAt74wP4AD4Qjw9c6gR3vrGAHwuEekcA8AA84QP4AD5ghQ98w0/AZxssUG6Bi5RS8swoVI4N8AF8AB/Ing/IpD+Z28V/WMDIAmcqpf4XEAAE4QP4AD6QGR+QxE3WdqlnFPXZCQuUWKCvUup1Lv7MXPxkatnL1BgzxiwqH/hUKTWxJH7zIxYIbYGmfzuCEOXngAAggA/gA/iAdT4gWf+3lVIdQ0d7DoAFKligh1LqLqXUXwkA1gWAqDIIjkM2ig9kxwdE+B9RSg2tELP5NRaI3AJd/gYBG5RSuwEBQAAfwAfwgcR94COl1HVKqSMij+4cEAsEsMBhSqlzlVLblVK/UEq9p5T6F9YSSDwgkLVlJ2tjrBgrvz7w35RSIva/Vkrd/bfYuvwfop/6BL//D+/sK6icTyK0AAAAAElFTkSuQmCC;" vertex="1" parent="1">
          <mxGeometry x="99.99000000000001" y="110" width="40" height="40" as="geometry" />
        </mxCell>
        <mxCell id="5LPPCdeX93j3gtg9hepy-6" value="User Insight (Output)" style="text;whiteSpace=wrap;html=1;" vertex="1" parent="1">
          <mxGeometry x="60" y="277.5" width="140" height="40" as="geometry" />
        </mxCell>
        <mxCell id="5LPPCdeX93j3gtg9hepy-9" value="" style="shape=flexArrow;endArrow=classic;html=1;rounded=0;width=16;endSize=9.67;fillColor=#000000;" edge="1" parent="1">
          <mxGeometry width="50" height="50" relative="1" as="geometry">
            <mxPoint x="215" y="79.5" as="sourcePoint" />
            <mxPoint x="265" y="79.5" as="targetPoint" />
          </mxGeometry>
        </mxCell>
        <mxCell id="5LPPCdeX93j3gtg9hepy-10" value="" style="shape=flexArrow;endArrow=classic;html=1;rounded=0;width=16;endSize=9.67;fillColor=#000000;" edge="1" parent="1">
          <mxGeometry width="50" height="50" relative="1" as="geometry">
            <mxPoint x="456" y="79.5" as="sourcePoint" />
            <mxPoint x="506" y="79.5" as="targetPoint" />
          </mxGeometry>
        </mxCell>
        <mxCell id="5LPPCdeX93j3gtg9hepy-11" value="" style="shape=flexArrow;endArrow=classic;html=1;rounded=0;width=16;endSize=9.67;fillColor=#000000;" edge="1" parent="1">
          <mxGeometry width="50" height="50" relative="1" as="geometry">
            <mxPoint x="599.71" y="135" as="sourcePoint" />
            <mxPoint x="599.71" y="185" as="targetPoint" />
          </mxGeometry>
        </mxCell>
        <mxCell id="5LPPCdeX93j3gtg9hepy-12" value="" style="shape=flexArrow;endArrow=classic;html=1;rounded=0;width=16;endSize=9.67;fillColor=#000000;" edge="1" parent="1">
          <mxGeometry width="50" height="50" relative="1" as="geometry">
            <mxPoint x="500" y="239.71" as="sourcePoint" />
            <mxPoint x="450" y="239.71" as="targetPoint" />
          </mxGeometry>
        </mxCell>
        <mxCell id="5LPPCdeX93j3gtg9hepy-13" value="" style="shape=flexArrow;endArrow=classic;html=1;rounded=0;width=16;endSize=9.67;fillColor=#000000;" edge="1" parent="1">
          <mxGeometry width="50" height="50" relative="1" as="geometry">
            <mxPoint x="264" y="238.71" as="sourcePoint" />
            <mxPoint x="214" y="238.71" as="targetPoint" />
          </mxGeometry>
        </mxCell>
        <mxCell id="5LPPCdeX93j3gtg9hepy-27" value="" style="shape=table;startSize=0;container=1;collapsible=0;childLayout=tableLayout;fontSize=16;strokeWidth=2;" vertex="1" parent="1">
          <mxGeometry x="230" y="20" width="30" height="30" as="geometry" />
        </mxCell>
        <mxCell id="5LPPCdeX93j3gtg9hepy-28" value="" style="shape=tableRow;horizontal=0;startSize=0;swimlaneHead=0;swimlaneBody=0;strokeColor=inherit;top=0;left=0;bottom=0;right=0;collapsible=0;dropTarget=0;fillColor=none;points=[[0,0.5],[1,0.5]];portConstraint=eastwest;fontSize=16;strokeWidth=2;" vertex="1" parent="5LPPCdeX93j3gtg9hepy-27">
          <mxGeometry width="30" height="10" as="geometry" />
        </mxCell>
        <mxCell id="5LPPCdeX93j3gtg9hepy-29" value="" style="shape=partialRectangle;html=1;whiteSpace=wrap;connectable=0;strokeColor=inherit;overflow=hidden;fillColor=none;top=0;left=0;bottom=0;right=0;pointerEvents=1;fontSize=16;strokeWidth=2;" vertex="1" parent="5LPPCdeX93j3gtg9hepy-28">
          <mxGeometry width="10" height="10" as="geometry">
            <mxRectangle width="10" height="10" as="alternateBounds" />
          </mxGeometry>
        </mxCell>
        <mxCell id="5LPPCdeX93j3gtg9hepy-30" value="" style="shape=partialRectangle;html=1;whiteSpace=wrap;connectable=0;strokeColor=inherit;overflow=hidden;fillColor=none;top=0;left=0;bottom=0;right=0;pointerEvents=1;fontSize=16;strokeWidth=2;" vertex="1" parent="5LPPCdeX93j3gtg9hepy-28">
          <mxGeometry x="10" width="10" height="10" as="geometry">
            <mxRectangle width="10" height="10" as="alternateBounds" />
          </mxGeometry>
        </mxCell>
        <mxCell id="5LPPCdeX93j3gtg9hepy-31" value="" style="shape=partialRectangle;html=1;whiteSpace=wrap;connectable=0;strokeColor=inherit;overflow=hidden;fillColor=none;top=0;left=0;bottom=0;right=0;pointerEvents=1;fontSize=16;strokeWidth=2;" vertex="1" parent="5LPPCdeX93j3gtg9hepy-28">
          <mxGeometry x="20" width="10" height="10" as="geometry">
            <mxRectangle width="10" height="10" as="alternateBounds" />
          </mxGeometry>
        </mxCell>
        <mxCell id="5LPPCdeX93j3gtg9hepy-32" value="" style="shape=tableRow;horizontal=0;startSize=0;swimlaneHead=0;swimlaneBody=0;strokeColor=inherit;top=0;left=0;bottom=0;right=0;collapsible=0;dropTarget=0;fillColor=none;points=[[0,0.5],[1,0.5]];portConstraint=eastwest;fontSize=16;strokeWidth=2;" vertex="1" parent="5LPPCdeX93j3gtg9hepy-27">
          <mxGeometry y="10" width="30" height="10" as="geometry" />
        </mxCell>
        <mxCell id="5LPPCdeX93j3gtg9hepy-33" value="" style="shape=partialRectangle;html=1;whiteSpace=wrap;connectable=0;strokeColor=inherit;overflow=hidden;fillColor=none;top=0;left=0;bottom=0;right=0;pointerEvents=1;fontSize=16;strokeWidth=2;" vertex="1" parent="5LPPCdeX93j3gtg9hepy-32">
          <mxGeometry width="10" height="10" as="geometry">
            <mxRectangle width="10" height="10" as="alternateBounds" />
          </mxGeometry>
        </mxCell>
        <mxCell id="5LPPCdeX93j3gtg9hepy-34" value="" style="shape=partialRectangle;html=1;whiteSpace=wrap;connectable=0;strokeColor=inherit;overflow=hidden;fillColor=none;top=0;left=0;bottom=0;right=0;pointerEvents=1;fontSize=16;strokeWidth=2;" vertex="1" parent="5LPPCdeX93j3gtg9hepy-32">
          <mxGeometry x="10" width="10" height="10" as="geometry">
            <mxRectangle width="10" height="10" as="alternateBounds" />
          </mxGeometry>
        </mxCell>
        <mxCell id="5LPPCdeX93j3gtg9hepy-35" value="" style="shape=partialRectangle;html=1;whiteSpace=wrap;connectable=0;strokeColor=inherit;overflow=hidden;fillColor=none;top=0;left=0;bottom=0;right=0;pointerEvents=1;fontSize=16;strokeWidth=2;" vertex="1" parent="5LPPCdeX93j3gtg9hepy-32">
          <mxGeometry x="20" width="10" height="10" as="geometry">
            <mxRectangle width="10" height="10" as="alternateBounds" />
          </mxGeometry>
        </mxCell>
        <mxCell id="5LPPCdeX93j3gtg9hepy-36" value="" style="shape=tableRow;horizontal=0;startSize=0;swimlaneHead=0;swimlaneBody=0;strokeColor=inherit;top=0;left=0;bottom=0;right=0;collapsible=0;dropTarget=0;fillColor=none;points=[[0,0.5],[1,0.5]];portConstraint=eastwest;fontSize=16;strokeWidth=2;" vertex="1" parent="5LPPCdeX93j3gtg9hepy-27">
          <mxGeometry y="20" width="30" height="10" as="geometry" />
        </mxCell>
        <mxCell id="5LPPCdeX93j3gtg9hepy-37" value="" style="shape=partialRectangle;html=1;whiteSpace=wrap;connectable=0;strokeColor=inherit;overflow=hidden;fillColor=none;top=0;left=0;bottom=0;right=0;pointerEvents=1;fontSize=16;strokeWidth=2;" vertex="1" parent="5LPPCdeX93j3gtg9hepy-36">
          <mxGeometry width="10" height="10" as="geometry">
            <mxRectangle width="10" height="10" as="alternateBounds" />
          </mxGeometry>
        </mxCell>
        <mxCell id="5LPPCdeX93j3gtg9hepy-38" value="" style="shape=partialRectangle;html=1;whiteSpace=wrap;connectable=0;strokeColor=inherit;overflow=hidden;fillColor=none;top=0;left=0;bottom=0;right=0;pointerEvents=1;fontSize=16;strokeWidth=2;" vertex="1" parent="5LPPCdeX93j3gtg9hepy-36">
          <mxGeometry x="10" width="10" height="10" as="geometry">
            <mxRectangle width="10" height="10" as="alternateBounds" />
          </mxGeometry>
        </mxCell>
        <mxCell id="5LPPCdeX93j3gtg9hepy-39" value="" style="shape=partialRectangle;html=1;whiteSpace=wrap;connectable=0;strokeColor=inherit;overflow=hidden;fillColor=none;top=0;left=0;bottom=0;right=0;pointerEvents=1;fontSize=16;strokeWidth=2;" vertex="1" parent="5LPPCdeX93j3gtg9hepy-36">
          <mxGeometry x="20" width="10" height="10" as="geometry">
            <mxRectangle width="10" height="10" as="alternateBounds" />
          </mxGeometry>
        </mxCell>
        <mxCell id="5LPPCdeX93j3gtg9hepy-40" value="(x&lt;sub&gt;1&lt;/sub&gt;,y&lt;sub&gt;1&lt;/sub&gt;) ... (x&lt;sub&gt;N&lt;/sub&gt;,y&lt;sub&gt;N&lt;/sub&gt;)" style="text;html=1;align=center;verticalAlign=middle;whiteSpace=wrap;rounded=0;fontStyle=3" vertex="1" parent="1">
          <mxGeometry x="440" y="10" width="95" height="30" as="geometry" />
        </mxCell>
        <mxCell id="5LPPCdeX93j3gtg9hepy-42" value="" style="rounded=0;whiteSpace=wrap;html=1;fillColor=#d0cee2;strokeColor=#56517e;strokeWidth=2;" vertex="1" parent="1">
          <mxGeometry x="640" y="140" width="20" height="20" as="geometry" />
        </mxCell>
        <mxCell id="5LPPCdeX93j3gtg9hepy-43" value="" style="ellipse;shape=cloud;whiteSpace=wrap;html=1;fillColor=#bac8d3;strokeColor=#23445d;" vertex="1" parent="1">
          <mxGeometry x="620" y="170" width="30" height="20" as="geometry" />
        </mxCell>
        <mxCell id="5LPPCdeX93j3gtg9hepy-44" value="" style="ellipse;whiteSpace=wrap;html=1;aspect=fixed;fillColor=#b0e3e6;strokeColor=#0e8088;" vertex="1" parent="1">
          <mxGeometry x="660" y="160" width="20" height="20" as="geometry" />
        </mxCell>
        <mxCell id="5LPPCdeX93j3gtg9hepy-45" value="" style="rounded=0;whiteSpace=wrap;html=1;strokeWidth=2;" vertex="1" parent="1">
          <mxGeometry x="457.5" y="150" width="60" height="40" as="geometry" />
        </mxCell>
        <mxCell id="5LPPCdeX93j3gtg9hepy-46" value="" style="rounded=0;whiteSpace=wrap;html=1;fillColor=#d0cee2;strokeColor=#56517e;strokeWidth=2;" vertex="1" parent="1">
          <mxGeometry x="467.5" y="160" width="10" height="15" as="geometry" />
        </mxCell>
        <mxCell id="5LPPCdeX93j3gtg9hepy-47" value="" style="ellipse;shape=cloud;whiteSpace=wrap;html=1;fillColor=#bac8d3;strokeColor=#23445d;" vertex="1" parent="1">
          <mxGeometry x="477.5" y="170" width="30" height="20" as="geometry" />
        </mxCell>
        <mxCell id="5LPPCdeX93j3gtg9hepy-48" value="" style="ellipse;whiteSpace=wrap;html=1;aspect=fixed;fillColor=#b0e3e6;strokeColor=#0e8088;" vertex="1" parent="1">
          <mxGeometry x="496.25" y="152.5" width="17.5" height="17.5" as="geometry" />
        </mxCell>
        <mxCell id="5LPPCdeX93j3gtg9hepy-49" value="" style="rounded=0;whiteSpace=wrap;html=1;strokeWidth=2;" vertex="1" parent="1">
          <mxGeometry x="70" y="205" width="89.99" height="70" as="geometry" />
        </mxCell>
        <mxCell id="5LPPCdeX93j3gtg9hepy-50" value="" style="rounded=0;whiteSpace=wrap;html=1;fillColor=#d0cee2;strokeColor=#56517e;strokeWidth=2;" vertex="1" parent="1">
          <mxGeometry x="79.99" y="220" width="20" height="30" as="geometry" />
        </mxCell>
        <mxCell id="5LPPCdeX93j3gtg9hepy-51" value="" style="ellipse;shape=cloud;whiteSpace=wrap;html=1;fillColor=#bac8d3;strokeColor=#23445d;" vertex="1" parent="1">
          <mxGeometry x="110" y="250" width="39.99" height="25" as="geometry" />
        </mxCell>
        <mxCell id="5LPPCdeX93j3gtg9hepy-52" value="" style="ellipse;whiteSpace=wrap;html=1;aspect=fixed;fillColor=#b0e3e6;strokeColor=#0e8088;" vertex="1" parent="1">
          <mxGeometry x="120" y="210" width="29.99" height="29.99" as="geometry" />
        </mxCell>
        <mxCell id="5LPPCdeX93j3gtg9hepy-55" value="" style="endArrow=classic;html=1;rounded=0;" edge="1" parent="1" target="5LPPCdeX93j3gtg9hepy-52">
          <mxGeometry width="50" height="50" relative="1" as="geometry">
            <mxPoint x="170" y="250" as="sourcePoint" />
            <mxPoint x="219.99" y="317.5" as="targetPoint" />
          </mxGeometry>
        </mxCell>
        <mxCell id="5LPPCdeX93j3gtg9hepy-56" value="" style="rounded=1;whiteSpace=wrap;html=1;strokeWidth=2;fillWeight=4;hachureGap=8;hachureAngle=45;fillColor=#1ba1e2;sketch=1;" vertex="1" parent="1">
          <mxGeometry x="170" y="250" width="30" height="20" as="geometry" />
        </mxCell>
      </root>
    </mxGraphModel>
  </diagram>
</mxfile>
